<?xml version="1.0" encoding="UTF-8"?>
<svg version="1.1" viewBox="0 0 26.91 30.2" xmlns="http://www.w3.org/2000/svg" xmlns:cc="http://creativecommons.org/ns#" xmlns:dc="http://purl.org/dc/elements/1.1/" xmlns:rdf="http://www.w3.org/1999/02/22-rdf-syntax-ns#">
 <defs>
  <clipPath id="clipPath26">
   <path d="m162.04 154.86-26.221-24.943c-2.843-2.703-5.771-5.05-7.754-8.483-1.426-2.471-2.975-6.161-3.091-10.659-0.018-0.659 7e-3 -1.338 0.055-2.029l26.766 22.735c1.822 1.547 4.061 3.123 6.616 2.534 2.272-0.524 3.679-2.913 4.579-6.378 0 0 3.724-18.808 4.35-20.688 0.626-1.877 2.467-0.73 2.467-0.73l23.695 20.85c-1.554 1.506-3.2 2.937-4.781 4.441l-24.608 23.412c-0.26 0.296-0.618 0.437-0.98 0.437-0.403 0-0.81-0.174-1.093-0.499"/>
  </clipPath>
  <linearGradient id="linearGradient36" x2="1" gradientTransform="matrix(60.739 -52.799 52.799 60.739 132.6 153.37)" gradientUnits="userSpaceOnUse">
   <stop stop-color="#f58220" offset="0"/>
   <stop stop-color="#ed1c24" offset="1"/>
  </linearGradient>
  <clipPath id="clipPath46">
   <path d="m167.4 90.572c-1.705-1.359-3.202-1.459-4.428-1.002-2.909 1.082-3.626 3.552-4.157 6.164l-4.189 20.722c-0.662 1.553-2 1.085-2 1.085l-23.104-19.971c0.632-0.736 1.311-1.467 2.045-2.242l15.956-16.85c9.482-10.015 19.377-12.454 29.531-1.731l17.878 18.88c2.968 3.132 4.834 5.619 5.805 9.994 0.359 1.61 0.512 3.154 0.512 4.614 0 3.178-0.728 5.966-1.653 8.238-7.917-6.945-28.219-24.726-32.196-27.901"/>
  </clipPath>
  <linearGradient id="linearGradient56" x2="1" gradientTransform="matrix(66.824 -58.089 58.089 66.824 128.06 133.35)" gradientUnits="userSpaceOnUse">
   <stop stop-color="#f58220" offset="0"/>
   <stop stop-color="#ed1c24" offset="1"/>
  </linearGradient>
  <clipPath id="clipPath66">
   <path d="m162.13 151.64-24.221-23.038c-2.627-2.5-5.332-4.666-7.164-7.839-1.289-2.231-2.677-5.545-2.838-9.574l23.896 20.298c1.822 1.547 4.061 3.123 6.616 2.534 2.272-0.524 3.679-2.913 4.579-6.378 0 0 3.724-18.808 4.35-20.688 0.626-1.877 2.467-0.73 2.467-0.73l3.035 2.672c8.825 11.996 8.49 26.116 8.484 26.351l-17.291 16.45c-0.237 0.274-0.568 0.403-0.902 0.403-0.373 0-0.75-0.16-1.011-0.461"/>
  </clipPath>
  <clipPath id="clipPath74">
   <path d="m104.46 178.91h100.66v-100.64h-100.66z"/>
  </clipPath>
  <clipPath id="clipPath78">
   <path d="m104.46 178.91h100.66v-100.64h-100.66z"/>
  </clipPath>
  <clipPath id="clipPath82">
   <path d="m156.78 178.91 48.343-52.061-52.32-48.583-48.343 52.061z"/>
  </clipPath>
  <linearGradient id="linearGradient88" x2="1" gradientTransform="matrix(57.131 -61.525 61.525 57.131 155.25 128.09)" gradientUnits="userSpaceOnUse">
   <stop stop-color="#231f20" offset="0"/>
   <stop stop-color="#fff" offset="1"/>
  </linearGradient>
  <mask id="mask90" x="0" y="0" width="1" height="1" maskUnits="userSpaceOnUse">
   <g clip-path="url(#clipPath74)">
    <path d="m104.46 178.91h100.66v-100.64h-100.66z"/>
    <g clip-path="url(#clipPath78)">
     <g clip-path="url(#clipPath82)">
      <path d="m156.78 178.91 48.343-52.061-52.32-48.583-48.343 52.061z" fill="url(#linearGradient88)"/>
     </g>
    </g>
   </g>
  </mask>
  <clipPath id="clipPath122">
   <path d="m104.46 178.91h100.66v-100.64h-100.66z"/>
  </clipPath>
  <clipPath id="clipPath126">
   <path d="m156.78 178.91 48.343-52.061-52.32-48.583-48.343 52.061z"/>
  </clipPath>
  <linearGradient id="linearGradient132" x2="1" gradientTransform="matrix(57.131 -61.525 61.525 57.131 155.22 128.12)" gradientUnits="userSpaceOnUse">
   <stop stop-color="#f58220" offset="0"/>
   <stop stop-color="#fff" offset="1"/>
  </linearGradient>
  <clipPath id="clipPath154">
   <path d="m152.63 117.54-21.062-18.207c0.722-0.896 1.527-1.76 2.409-2.691l4.071-4.302c8.329 0.425 15.056 2.194 20.489 4.79l-3.907 19.325c-0.413 0.97-1.091 1.151-1.541 1.151-0.271 0-0.459-0.066-0.459-0.066"/>
  </clipPath>
  <clipPath id="clipPath162">
   <path d="m118.97 131.06h52.166v-52.161h-52.166z"/>
  </clipPath>
  <clipPath id="clipPath166">
   <path d="m118.97 131.06h52.166v-52.161h-52.166z"/>
  </clipPath>
  <clipPath id="clipPath170">
   <path d="m146.05 131.06 25.086-27.015-27.081-25.146-25.085 27.014z"/>
  </clipPath>
  <linearGradient id="linearGradient176" x2="1" gradientTransform="matrix(57.084 -61.474 61.474 57.084 138.25 112.3)" gradientUnits="userSpaceOnUse">
   <stop stop-color="#231f20" offset="0"/>
   <stop stop-color="#fff" offset="1"/>
  </linearGradient>
  <mask id="mask178" x="0" y="0" width="1" height="1" maskUnits="userSpaceOnUse">
   <g clip-path="url(#clipPath162)">
    <path d="m118.97 131.06h52.166v-52.161h-52.166z"/>
    <g clip-path="url(#clipPath166)">
     <g clip-path="url(#clipPath170)">
      <path d="m146.05 131.06 25.086-27.015-27.081-25.146-25.085 27.014z" fill="url(#linearGradient176)"/>
     </g>
    </g>
   </g>
  </mask>
  <clipPath id="clipPath210">
   <path d="m118.97 131.06h52.166v-52.161h-52.166z"/>
  </clipPath>
  <clipPath id="clipPath214">
   <path d="m146.05 131.06 25.086-27.015-27.081-25.146-25.085 27.014z"/>
  </clipPath>
  <linearGradient id="linearGradient220" x2="1" gradientTransform="matrix(57.084 -61.474 61.474 57.084 138.22 112.33)" gradientUnits="userSpaceOnUse">
   <stop stop-color="#f58220" offset="0"/>
   <stop stop-color="#fff" offset="1"/>
  </linearGradient>
 </defs>
 <metadata>
  <rdf:RDF>
   <cc:Work rdf:about="">
    <dc:format>image/svg+xml</dc:format>
    <dc:type rdf:resource="http://purl.org/dc/dcmitype/StillImage"/>
    <dc:title/>
   </cc:Work>
  </rdf:RDF>
 </metadata>
 <g transform="translate(-67.352 -55.204)">
  <g transform="matrix(.35278 0 0 -.35278 23.264 110.01)">
   <g clip-path="url(#clipPath26)">
    <path d="m162.04 154.86-26.221-24.943c-2.843-2.703-5.771-5.05-7.754-8.483-1.426-2.471-2.975-6.161-3.091-10.659-0.018-0.659 7e-3 -1.338 0.055-2.029l26.766 22.735c1.822 1.547 4.061 3.123 6.616 2.534 2.272-0.524 3.679-2.913 4.579-6.378 0 0 3.724-18.808 4.35-20.688 0.626-1.877 2.467-0.73 2.467-0.73l23.695 20.85c-1.554 1.506-3.2 2.937-4.781 4.441l-24.608 23.412c-0.26 0.296-0.618 0.437-0.98 0.437-0.403 0-0.81-0.174-1.093-0.499" fill="url(#linearGradient36)"/>
   </g>
   <g clip-path="url(#clipPath46)">
    <path d="m167.4 90.572c-1.705-1.359-3.202-1.459-4.428-1.002-2.909 1.082-3.626 3.552-4.157 6.164l-4.189 20.722c-0.662 1.553-2 1.085-2 1.085l-23.104-19.971c0.632-0.736 1.311-1.467 2.045-2.242l15.956-16.85c9.482-10.015 19.377-12.454 29.531-1.731l17.878 18.88c2.968 3.132 4.834 5.619 5.805 9.994 0.359 1.61 0.512 3.154 0.512 4.614 0 3.178-0.728 5.966-1.653 8.238-7.917-6.945-28.219-24.726-32.196-27.901" fill="url(#linearGradient56)"/>
   </g>
   <g clip-path="url(#clipPath66)">
    <g mask="url(#mask90)">
     <g clip-path="url(#clipPath122)">
      <g clip-path="url(#clipPath126)">
       <path d="m156.78 178.91 48.343-52.061-52.32-48.583-48.343 52.061z" fill="url(#linearGradient132)"/>
      </g>
     </g>
    </g>
   </g>
   <g clip-path="url(#clipPath154)">
    <g mask="url(#mask178)">
     <g clip-path="url(#clipPath210)">
      <g clip-path="url(#clipPath214)">
       <path d="m146.05 131.06 25.086-27.015-27.081-25.146-25.085 27.014z" fill="url(#linearGradient220)"/>
      </g>
     </g>
    </g>
   </g>
  </g>
 </g>
</svg>
